<?xml version="1.0" encoding="UTF-8"?>
<svg xmlns="http://www.w3.org/2000/svg" xmlns:xlink="http://www.w3.org/1999/xlink" viewBox="0 0 57 27.88" preserveAspectRatio="xMidYMid meet" kewidth="100" keheight="48.912" eType="Shaker" stroke="#808080" stroke-width="0.855" stroke-linejoin="round" stroke-linecap="round" fill="#D7DADE">
  <defs id="defs6" />
  <g id="Layer_14">
    <g id="Screener">
      <line id="line1" x1="56" x2="56" y1="26.88" y2="1" fill="transparent" stroke-width="0.855" stroke-linecap="round" stroke-linejoin="round" style="opacity:0" />
      <line id="line2" x1="1" x2="1" y1="1" y2="26.88" fill="transparent" stroke-width="0.855" stroke-linecap="round" stroke-linejoin="round" style="opacity:0" />
      <g id="g4">
        <polyline id="body" points="39.11 22.91 39.11 26.88 34.11 26.88 34.11 22.3" stroke-width="0.855" stroke-linecap="round" stroke-linejoin="round" />
        <polyline id="polyline4" points="47.21 23.92 47.21 26.88 42.21 26.88 42.21 23.3" stroke-width="0.855" stroke-linecap="round" stroke-linejoin="round" />
      </g>
      <g id="g3">
        <polygon id="polygon2" points="50.22 24.29 5.56 18.77 6.26 13.12 11 13.12 11 9.99 51.44 14.37 50.22 24.29" stroke-width="0.855" stroke-linecap="round" stroke-linejoin="round" fill="#D7DADE" />
        <line id="line3" x1="11" x2="51.06" y1="13.12" y2="17.46" fill="transparent" stroke-width="0.855" stroke-linejoin="round" />
      </g>
      <line id="line4" x1="56" x2="50.89" y1="18.81" y2="18.81" fill="transparent" stroke-width="0.855" stroke-linecap="round" stroke-linejoin="round" style="opacity:0" />
      <line id="line5" x1="1" x2="5.56" y1="18.81" y2="18.81" fill="transparent" stroke-width="0.855" stroke-linecap="round" stroke-linejoin="round" style="opacity:0" />
      <g id="g6">
        <polyline id="polyline5" points="11 9.99 11 6.51 6 1.51 21 1.51 16 6.51 16 10.49" stroke-width="0.855" stroke-linecap="round" stroke-linejoin="round" />
        <line id="line6" x1="11" x2="16" y1="6.51" y2="6.51" fill="transparent" stroke-width="0.855" stroke-linejoin="round" />
      </g>
    </g>
  </g>
</svg>
